**ABCDEFGHIJKLMNOPQRSTUVWXYZabcdefghijklmnopqrstuvwxyz**************************
**PARASOLID !"#$%&'()*+,-./:;<=>?@[\]^_`{|}~0123456789**************************
**PART1;
MC=AMD64;
MC_MODEL=Intel64 Family 6 Model 151 Stepping 2, GenuineIntel;
MC_ID=unknown;
OS=Windows_NT;
OS_RELEASE=unknown;
FRU=Parasolid Version 33.1, build 255,  1- 8-2022;
APPL=SOLIDWORKS 2022-2022167;
SITE=;
USER=unknown;
FORMAT=text;
GUISE=transmit;
KEY=FILEmakeProjectedPlanarWire.x_t;
DATE=Thu Jun 29 16:28:24 2023;
**PART2;
SCH=SCH_3301255_33103;
USFLD_SIZE=0;
**PART3;
**END_OF_HEADER*****************************************************************
T51 : TRANSMIT FILE created by modeller version 330125523 SCH_3301255_33103_1300
6230 0 12 35 CCCI7 lattice222 0 CCCI4 mesh1006 0 I8 polyline1008 0 CCCCCCCDI5 ow
ner1040 0 CCCCCCI13 boundary_mesh1006 0 I17 boundary_polyline1008 0 CCCA16 index
_map_offset0 0 1 dA9 index_map82 0 A17 node_id_index_map82 0 A20 schema_embeddin
g_map82 0 A5 child12 0 A14 lowest_node_id0 0 1 dA16 mesh_offset_data206 0 Z1 329
 0 0 0 0 0 0 0 0 0 1e3 1e-8 0 2 0 1 0 3 1 3 4 5 6 0 0 7 8 9 0 0 0 0 0 0 0 13 255
 3 210 0 1 0 10 0 0 7 10 50 255 4 3 0 10 0 0 0 +0 0 0 0 1 0 0 0 1 31 255 5 145 0
 8 11 0 0 -.0195 0 -.0195 0 1 0 0 0 1 .0025 29 255 6 208 0 9 12 0 .0195 0 -.017
 19 8 CCCCCCCA5 owner12 0 Z7 209 0 1 0 0 3 V0 16 255 8 143 0 ?13 0 14 5 0 0 1 18
 255 9 206 0 15 0 16 6 ?1 17 255 15 0 0 0 0 9 17 18 0 13 -18 16 203 0 19 9 20 12
 ?1 17 19 0 21 13 17 16 22 14 0 23 +18 20 200 0 17 16 24 25 ?1 29 12 205 0 16 25
 6 .017 0 -.0195 29 25 202 0 20 26 12 .0195 0 -.0195 29 26 199 0 24 27 25 -.0195
 0 .0195 18 24 197 0 28 20 29 26 ?1 29 27 196 0 29 30 26 -.0195 0 .017 18 29 194
 0 31 24 32 27 ?1 29 30 193 0 32 33 27 -.017 0 .0195 18 32 191 0 34 29 35 30 ?1
 29 33 190 0 35 36 30 .0195 0 .0195 18 35 188 0 37 32 38 33 ?1 29 36 187 0 38 39
 33 .017 0 .0195 18 38 185 0 40 35 41 36 ?1 29 39 184 0 41 42 36 .0195 0 .017 18
 41 182 0 43 38 44 39 ?1 29 42 181 0 44 45 39 -.0195 0 -.0195 18 44 179 0 46 41
 47 42 ?1 29 45 178 0 47 48 42 -.017 0 -.0195 18 47 176 0 49 44 50 45 ?1 29 48 1
75 0 50 51 45 -.0195 0 -.017 18 50 173 0 52 47 53 48 ?1 29 51 172 0 53 54 48 -.0
145 0 .0145 18 53 170 0 55 50 56 51 ?1 29 54 169 0 56 57 51 .0145 0 .0145 18 56
 167 0 58 53 59 54 ?1 29 57 166 0 59 60 54 .0145 0 -.0145 18 59 164 0 61 56 62 5
7 ?1 29 60 163 0 62 63 57 -.0145 0 -.0145 18 62 161 0 64 59 65 60 ?1 29 63 160 0
 65 66 60 -.0245 0 .0245 18 65 158 0 67 62 68 63 ?1 29 66 157 0 68 69 63 -.0245
 0 -.0245 18 68 155 0 70 65 71 66 ?1 29 69 154 0 71 72 66 .0245 0 -.0245 18 71 1
52 0 73 68 74 69 ?1 29 72 151 0 74 0 69 .0245 0 .0245 18 74 149 0 75 71 0 72 ?1
 17 75 0 76 73 77 74 67 78 0 79 +15 255 76 7 0 75 10 80 17 73 0 76 70 75 71 79 8
1 0 82 +17 77 0 76 75 70 65 83 84 0 0 +17 67 0 0 0 0 65 75 78 0 77 -16 78 13 0 ?
75 81 0 85 0 0 1 17 79 0 0 0 0 74 73 81 0 0 -16 81 21 0 ?73 86 78 87 0 0 1 16 86
 29 0 ?70 84 81 88 0 0 1 30 255 87 23 0 81 85 88 0 +.0245 0 0 0 0 -1 30 85 15 0
 78 0 87 0 +0 0 .0245 1 0 0 30 88 31 0 86 87 89 0 +0 0 -.0245 -1 0 0 30 89 39 0
 84 88 90 0 +-.0245 0 0 0 0 1 16 84 37 0 ?77 91 86 89 0 0 1 30 90 47 0 91 89 92
 0 +-.0145 0 0 0 0 -1 16 91 45 0 ?64 93 84 90 0 0 1 30 92 55 0 93 90 94 0 +0 0 -
.0145 1 0 0 16 93 53 0 ?61 95 91 92 0 0 1 30 94 63 0 95 92 96 0 +.0145 0 -867361
737988403e-33 59818050895752e-30 0 1 16 95 61 0 ?58 97 93 94 0 0 1 30 96 71 0 97
 94 98 0 +0 0 .0145 -1 0 0 16 97 69 0 ?99 100 95 96 0 0 1 30 98 79 0 100 96 101
 0 +-.0195 0 0 0 0 1 16 100 77 0 ?52 102 97 98 0 0 1 31 101 85 0 102 98 103 0 --
.0195 0 -.0195 0 1 0 0 0 1 .0025 16 102 83 0 ?49 104 100 101 0 0 1 30 103 91 0 1
04 101 105 0 +0 0 -.0195 -1 0 0 16 104 89 0 ?106 107 102 103 0 0 1 30 105 97 0 1
07 103 108 0 +.0195 0 0 0 0 -1 16 107 95 0 ?43 109 104 105 0 0 1 31 108 103 0 10
9 105 110 0 -.0195 0 .0195 0 1 0 0 0 1 .0025 16 109 101 0 ?40 111 107 108 0 0 1
 30 110 109 0 111 108 112 0 +0 0 .0195 1 0 0 16 111 107 0 ?113 114 109 110 0 0 1
 30 112 115 0 114 110 115 0 +0 0 .0195 1 0 0 16 114 113 0 ?34 116 111 112 0 0 1
 31 115 121 0 116 112 117 0 --.0195 0 .0195 0 1 0 0 0 1 .0025 16 116 119 0 ?31 1
18 114 115 0 0 1 30 117 127 0 118 115 119 0 +-.0195 0 0 0 0 1 16 118 125 0 ?120
 18 116 117 0 0 1 30 119 133 0 18 117 11 0 +.0195 0 0 0 0 -1 16 18 131 0 ?17 14
 118 119 0 0 1 30 11 139 0 14 119 5 0 +0 0 -.0195 -1 0 0 16 14 137 0 ?19 8 18 11
 0 0 1 17 17 0 21 19 13 20 15 18 0 22 +15 21 12 0 17 10 0 17 13 0 21 17 19 9 23
 8 0 0 +17 22 0 0 0 0 20 19 14 0 0 -17 23 0 0 0 0 16 13 8 0 0 -14 255 10 1 0 ?0
 0 76 3 4 +0 0 0 0 3 17 120 0 121 34 31 24 122 118 0 0 +15 121 11 0 34 10 21 17
 34 0 121 31 120 32 28 114 0 123 +17 31 0 121 120 34 29 123 116 0 122 +17 122 0
 0 0 0 29 120 118 0 0 -17 123 0 0 0 0 32 31 116 0 0 -17 28 0 0 0 0 24 34 114 0 1
20 -17 113 0 124 43 40 35 125 111 0 0 +15 124 10 0 43 10 121 17 43 0 124 40 113
 41 37 107 0 126 +17 40 0 124 113 43 38 126 109 0 125 +17 125 0 0 0 0 38 113 111
 0 0 -17 126 0 0 0 0 41 40 109 0 0 -17 37 0 0 0 0 35 43 107 0 113 -17 106 0 127
 52 49 44 128 104 0 0 +15 127 9 0 52 10 124 17 52 0 127 49 106 50 46 100 0 129 +
17 49 0 127 106 52 47 129 102 0 128 +17 128 0 0 0 0 47 106 104 0 0 -17 129 0 0 0
 0 50 49 102 0 0 -17 46 0 0 0 0 44 52 100 0 106 -17 99 0 80 64 58 53 130 97 0 0
 +15 80 8 0 64 10 127 17 64 0 80 61 99 62 55 91 0 131 +17 58 0 80 99 61 56 132 9
5 0 130 +17 130 0 0 0 0 56 99 97 0 0 -17 61 0 80 58 64 59 131 93 0 132 +17 132 0
 0 0 0 59 58 95 0 0 -17 131 0 0 0 0 62 61 93 0 0 -17 55 0 0 0 0 53 64 91 0 99 -1
7 70 0 76 77 73 68 82 86 0 83 +17 82 0 0 0 0 71 70 86 0 0 -17 83 0 0 0 0 68 77 8
4 0 0 -1 0 
